<svg version="1.1" id="Layer_1" xmlns="http://www.w3.org/2000/svg" xmlns:xlink="http://www.w3.org/1999/xlink" x="0px" y="0px"
	 width="100%" viewBox="0 0 1024 1024" enable-background="new 0 0 1024 1024" xml:space="preserve">
<path fill="#000000" opacity="1.000000" stroke="none" 
	d="
M577.382202,516.983765 
	C578.323242,534.965515 580.447693,552.289490 585.998901,569.109375 
	C588.930603,568.338257 589.331238,566.379150 590.134399,564.813049 
	C621.063416,504.499207 592.799255,430.489777 529.340576,405.887421 
	C463.509949,380.365540 388.358185,418.881470 374.657043,492.782074 
	C363.274078,554.178772 403.923309,612.973267 465.058716,625.657715 
	C474.893799,627.698303 484.899048,628.019043 494.888092,627.571106 
	C499.405029,627.368591 501.108673,628.717651 501.074432,633.400330 
	C500.913727,655.395569 500.924530,677.393738 501.114227,699.388733 
	C501.156189,704.256165 499.627441,706.115173 494.564606,706.266541 
	C411.303467,708.755920 337.145294,659.490540 307.049713,581.519897 
	C277.393127,504.686584 301.190094,415.577332 365.014557,363.680450 
	C390.073425,343.304565 418.207550,329.020142 449.905670,323.444427 
	C518.163025,311.437988 577.802856,329.251373 626.652283,379.004211 
	C659.900940,412.867767 677.670776,454.006470 680.425415,501.592285 
	C683.476746,554.302612 667.072571,600.276428 633.088806,640.241272 
	C630.230469,643.602600 630.502319,645.640320 633.427551,648.513794 
	C659.484863,674.109436 690.054749,691.503906 725.753113,699.671814 
	C726.883118,699.930481 728.036743,700.114990 729.133301,700.474426 
	C729.520325,700.601257 729.769653,701.148071 730.502625,701.981628 
	C725.450439,704.181885 720.274048,704.388977 715.304077,704.904236 
	C666.895142,709.922974 622.053955,699.686218 582.065735,671.636963 
	C536.838623,639.912964 510.224121,596.112488 501.047302,541.738403 
	C499.750031,534.051880 499.651398,526.167847 498.862091,518.388977 
	C498.426941,514.100159 499.963776,512.509033 504.443176,512.536621 
	C527.437988,512.678406 550.435120,512.611328 573.429932,512.431030 
	C576.712158,512.405334 577.562622,513.729980 577.382202,516.983765 
z"/>
</svg>