<?xml version="1.0" encoding="UTF-8"?>
<svg version="1.1" viewBox="0 0 996 1068" width="249" height="267" xmlns="http://www.w3.org/2000/svg">
<path transform="translate(417,17)" d="m0 0 9 2 4 3 7 1v2l5 1 8 4 5 2 4 3v2h7l5 7 3 11 5 1 1 5-4 8 10-5 5 2 2 5h5l5-4 8-4 10-2 8-8 13-6 7-2 14-1h20l8-9 5-5 7-5 12-4h24l12 5 10 9 6 7 5 10 10-2 9 1 10 4 9 7 6 7 5 11 5 14 7-1 4 2 7-7 13-8 2-2 14-5 10-5h13l-2 5-5 10-4 3 2 2v6l-4 5h-6l-1-1v-5l-3 2-1 3-3 1v3l3-1 5 4-1 5-6 11-5 6 6 7 3 9 5-6 5-5 3-4 1-4 3-1 2-4 7-7 17-10 10 1 4 2 1 2v10l-7 8-8 7-5 3-2 7-4 6h-6l-1-4-3 2-4 1 6 1 9 5 1 1v7l9-3 7-1 15 1 11 5 5 2 1 1v5l-4 5-7 1v2l-4 2h-8l-1 3-2 1h-7l1 8-6 9-1-3-6-1-4-3 1-6h-3l-1 4h-4l-4-10v-2l-38 1-3 2-5 1h-11l3 3 12 7 4 2h41l12 4 8 7 5 8v7l-4 2-3-1-1 4-8 1h-21l-7-2-2-2-7-2h-3l13 18 11 19 8 16 8 17 9 25 6 22 4 21 3 29v28l-1 5v15l10 14 5 11 3 12 1 9-1 9-5 16-8 16-6 7-8 4-4 1h-14l-9 19-12 20-9 11-12 13-11 10-13 9-18 10-14 5-8 3 3 16 2 9 12 14 9 11 11 17 12 22 10 25 6 21 1 5 10-5 14-10 10-7 2-4 5-56 1-5 12-2 10-3 7 2 2 3v8l-4 36v10l22 2 25 2 50 3 5 2 3 8v10l-4 10-6 9-5-1-7-8-6-3-14-1h-64l-9 1-10 8-12 9-17 13-11 8h-2l-1 41-2 16-5 24-1 4v8l11 18 8 14 9 21 8 24 7 28 8 48v6h-637l1-7 7-23 12-29 12-23 12-18 13-19 5-7 1-7-8-31-5-32-1-52-17-12-14-11-7-1-24 12-3 13-4 1-8-7-9-16 1-5 13-8 12-7h2l-3-5-32-24-16-4-16-2h-13l-10 3-6-1-4-7-1-4v-16l4-6 4-2h7l16 4 27 10 2-5 1-1v-8l-4-18v-9l5-5 5-2h16l4 3 1 3v39l2 12 5 5 12 9 23 15 16 10 16 11 5 3 3-12 6-16 8-16 6-11 16-22 9-10 2-16 1-16 3-9 6-4 13-3-2-2-20-9-18-11-9-6-4-2-7 1-45 9-23 3-4-2v-5l12-10 17-12 17-11 7-4h2l-6-12-10-30-4-20-3-28v-50l1-17-12-6-7-6v-2l-3-1-5-8-5-16-1-4v-18l5-16 7-14 11-12 8-7 8-5 1-14 6-20 7-15 10-17 14-19 14-15 27-27 8-7 12-9 11-8 17-11 19-11 29-14 4-3-1-1-24-1-3-7 4-6 5-4 6-3 11-2 4-1 4 1-3-5-5 1-3-5 3-4 6 1 2 3 4 1 1-4 5 1 4 6-1 6 6-1 7-3-4-3-10-8v-8l1-1-8-3-2-3h-9l-6-2-9-5-4-5-3-6v-5l3-3 4 1 5-1 13 4 9 2 8 3 2-5 4-2 7 3v6l-2 5 4 1 2-4 4-7 6 1 6 5-1 5-5 6 1 3 9 2 3 2 9 2 1 2 5 1 4-1 9 4-4-7-6-7-3-6-4-3-6-3-1-1-9-2-7-6-6-3-12-12-4-9v-10zm-1 65 4 1zm8 0-1 2 4-1zm340 20-2 3 5-2zm53 2m6 13m-1 1m-1 1m-1 1-3 4 4-2zm-4 4m-59 1-2 1 1 3 4-2zm49 11m-1 1m-1 1m-41 1m-19 2-4 4 6-1zm20 0m36 1m-34 3 1 3h2l-1-3zm-33 1v2h5l-1-2zm8 5v2h2v-2zm-15 7-4 9-1 6 2 1 5-5-3 4 4-1 3-3 1-3 3-1v-2l-6-1-2-4zm-13 3m24 0m70 0m-71 1m67 0m-2 1-2 2 4-1zm-3 2m33 9m-81 28m1 1m1 1 6 8 6 5-2-5-4-6z" fill="#E6E7E7"/>
<path transform="translate(699,661)" d="m0 0 5 5 12 13 10 14 11 18 9 17 9 23 6 21 1 5 10-5 14-10 10-7 2-4 5-56 1-5 12-2 10-3 7 2 2 3v8l-4 36v10l22 2 25 2 50 3 5 2 3 8v10l-4 10-6 9-5-1-7-8-6-3-14-1h-64l-9 1-10 8-12 9-17 13-11 8h-2l-1 41-2 16-5 24-1 4v8l11 18 8 14 9 21 8 24 7 28 8 48v6h-637l1-7 7-23 12-29 12-23 12-18 13-19 5-7 1-7-8-31-5-32-1-52-17-12-14-11-7-1-24 12-3 13-4 1-8-7-9-16 1-5 13-8 12-7h2l-3-5-32-24-16-4-16-2h-13l-10 3-6-1-4-7-1-4v-16l4-6 4-2h7l16 4 27 10 2-5 1-1v-8l-4-18v-9l5-5 5-2h16l4 3 1 3v39l2 12 5 5 12 9 23 15 16 10 16 11 5 3 3-12 6-16 8-16 6-11 16-22 9-10 2-1 2 3 3 20 6 25 4 18v18l-6 63-2 33-2 21-1 3-2 29-3 16-5 6-5 3h-2l-2 5-1 3v9l3 6 4 3 14 2-2 4-3 7v7l3 7 5 5 3 1h12l6-1 2-4 4-6v-9l-4-8-8-7 1-22 2-14 2-1 23 2 1 6v27l-7 11-1 8 3 6 7 6 5 2 7-1 5-3h2l5-10-2-10-6-8-7-3v-29h17l14 1 1 1v32l-7 8-2 7v6l4 9 5 4v2l13 1 9-3 5-2v-3h2l2-16 1-2h9l3-4 2-5v-10l-4-8-3-2-10-2-3-9-2-10-1-47v-37l1-3 9 2 4 2-2 4-6 8-1 4v15l5 10 7 6 4 1h12l9-6 5-8 1-3v-13l-4-10-1-3h54l22-2 13-3 22-6 24-9 21-10 11-8 12-9 16-16 9-11 10-13 11-16 11-21 10-28 6-22 3-16 1-11z" fill="#EDE7F0"/>
<path transform="translate(417,17)" d="m0 0 9 2 4 3 7 1v2l5 1 8 4 5 2 4 3v2h7l5 7 3 11 5 1 1 5-4 8 10-5 5 2 2 5h5l5-4 8-4 10-2 8-8 13-6 7-2 14-1h20l8-9 5-5 7-5 12-4h24l12 5 10 9 6 7 5 10 10-2 9 1 10 4 9 7 6 7 5 11 5 14 7-1 4 2 7-7 13-8 2-2 14-5 10-5h13l-2 5-5 10-4 3 2 2v6l-4 5h-6l-1-1v-5l-3 2-1 3-3 1v3l3-1 5 4-1 5-6 11-5 6 6 7 3 9 5-6 5-5 3-4 1-4 3-1 2-4 7-7 17-10 10 1 4 2 1 2v10l-7 8-8 7-5 3-2 7-4 6h-6l-1-4-3 2-4 1 6 1 9 5 1 1v7l9-3 7-1 15 1 11 5 5 2 1 1v5l-4 5-7 1v2l-4 2h-8l-1 3-2 1h-7l1 8-6 9-1-3-6-1-4-3 1-6h-3l-1 4h-4l-4-10v-2l-38 1-3 2-5 1h-11l3 3 12 7 4 2h41l12 4 8 7 5 8v7l-4 2-3-1-1 4-8 1h-21l-7-2-2-2-7-2h-3l13 18 11 19 8 16 8 17 9 25 6 22 4 21 3 29v28l-1 5v15l10 14 5 11 3 12 1 9-1 9-5 16-8 16-6 7-8 4-4 1-18-1-1-3h-7l-28-15-17-9-31-14-26-10-24-9-41-14-30-9-15-4-16-4-17-4-14-3-12-2-1-1-23-3-7-2-21-2-7-2-30-2-6-3-28-1h-58l-29 1-20 3-21 2-7 2h-12l-11-7-10-9-6-7-5-10-2-8v-10l3-12 8-13 8-8 14-10 22-11 8-6 4-6 1-1 14-1 65-1 10-1 75 2 22 2h14l1 1 61 7 37 5 16 2 12 3 20 4 21 5 21 6 9 2 21 6 38 11h13l7-4 4-5h2l1-5v-15l-4-28-8-32-8-21-2-4v-4h-2l-11-20-11-16-8-9-3-7-5-6v-2l-4-1-14-15-20-20-5-6-15-8-18-7h-10l-1-4h2v-2l-11-2-21-6-2-1-13-2-12-5-10-8-17-8-5-1h-8l-6 4-2 3 1 10-5 3-11 1-3-1v-2l-7 1-25 1v-8l-5 1-2 9-4 2h-21l-3 3-2 4-24 6-6 2v-2l-1 1h-30l-3-7 4-6 5-4 6-3 11-2 4-1 4 1-3-5-5 1-3-5 3-4 6 1 2 3 4 1 1-4 5 1 4 6-1 6 6-1 7-3-4-3-10-8v-8l1-1-8-3-2-3h-9l-6-2-9-5-4-5-3-6v-5l3-3 4 1 5-1 13 4 9 2 8 3 2-5 4-2 7 3v6l-2 5 4 1 2-4 4-7 6 1 6 5-1 5-5 6 1 3 9 2 3 2 9 2 1 2 5 1 4-1 9 4-4-7-6-7-3-6-4-3-6-3-1-1-9-2-7-6-6-3-12-12-4-9v-10zm-1 65 4 1zm8 0-1 2 4-1zm340 20-2 3 5-2zm53 2m6 13m-1 1m-1 1m-1 1-3 4 4-2zm-4 4m-59 1-2 1 1 3 4-2zm49 11m-1 1m-1 1m-41 1m-19 2-4 4 6-1zm20 0m36 1m-34 3 1 3h2l-1-3zm-33 1v2h5l-1-2zm8 5v2h2v-2zm-15 7-4 9-1 6 2 1 5-5-3 4 4-1 3-3 1-3 3-1v-2l-6-1-2-4zm-13 3m24 0m70 0m-71 1m67 0m-2 1-2 2 4-1zm-3 2m33 9m-81 28m1 1m1 1 6 8 6 5-2-5-4-6z" fill="#3A73C5"/>
<path transform="translate(521,88)" d="m0 0h8l9 3 16 8 8 7 14 5 10 1 15 5 17 4 2 1v2h-2l1 3h10l18 7 15 8 15 16 20 20 5 6 3 1 8 11 2 5 8 9 11 17 9 16v2h2l5 13 6 16 8 32 4 28v15l-2 5-5 5-5 4-3 1h-13l-31-9-22-6-9-3-16-4-14-4-31-7-16-3-13-2-35-5-51-6-18-2-4-1h-11l-22-2-78-2-7 1-65 1-14 1-7 9-14 8-17 9-13 10-8 9-6 12-2 9v10l4 13 7 10 8 8 14 9h12l13-3 24-2 11-2 29-1h58l28 1v1h-63l-54 2-9 2-28 2-6 2-17 1-4 2-25 2h-13l-12-6-7-6v-2l-3-1-5-8-5-16-1-4v-18l5-16 7-14 11-12 8-7 8-5 1-14 6-20 7-15 10-17 14-19 14-15 27-27 8-7 12-9 11-8 17-11 19-11 29-14 4-3-1-2 9-2v2l8-3 16-4h4l2-6 3-2h21l3-1 2-9 2-2 5 1-1 8 5-1 27-1v2h9l9-3-1-10 5-6z" fill="#6D9DD5"/>
<path transform="translate(663,633)" d="m0 0h16l4 1 13 1 1 9 3 14-3 23-6 25-10 30-11 23-13 19-11 14-12 14-15 15-10 7-13 9-19 9-24 9-22 6-13 3-22 2h-36l-18-1 5 10 1 3v13l-4 8-5 6-7 4h-12l-7-3-7-8-3-7v-15l3-7 7-9-10-3-3-1v40l1 47 4 18 12 3 4 5 2 5v10l-4 8-2 2-9-1-1 14-2 4h-2v3l-10 5-9 1-8-2-5-5-3-4-2-6 1-10 3-5 5-6v-32l-31-2 1 29 7 3 6 8 2 10-4 7-5 5-7 3-7-1-6-4-6-7-1-8 5-10 3-4v-33h-13l-11-1-2 14-1 22 8 7 4 8v9l-4 6-3 4-6 2h-12l-7-4-4-6-1-4v-7l4-8 2-3h-9l-7-2-5-6-1-3v-9l4-8 9-6 2-3 3-16 2-29 1-3 3-34 1-20 6-63v-18l-5-21-6-28-2-14-2-3 2-31 3-9 6-4 13-3 1-2 14 2 18 5 2 5 10 1 3-2 13 1 6 2 3 23 5 22 5 14 8 15 12 13 5 5 6 2 17 1 15-1 20-6 11-4 9-5 10-6h3v-2l9-6 5-5 10-9 15-15 5-7 7-7 1-3h2l2-5 3-3 1-3h2l1-5h2l1-4 7-8 6-3 26-1 4-3 23-7 5-1h7l3 5 5-2 8-7z" fill="#3A73C5"/>
<path transform="translate(417,17)" d="m0 0 9 2 4 3 7 1v2l5 1 8 4 5 2 4 3v2h7l5 7 3 11 5 1 1 5-4 8 10-5 5 2 2 5h5l5-4 8-4 10-2 8-8 13-6 7-2 14-1h20l8-9 5-5 7-5 12-4h24l12 5 10 9 6 7 5 10 10-2 9 1 10 4 9 7 6 7 5 11 5 14 7-1 4 2 7-7 13-8 2-2 14-5 10-5h13l-2 5-5 10-4 3 2 2v6l-4 5h-6l-1-1v-5l-3 2-1 3-3 1v3l3-1 5 4-1 5-6 11-5 6 6 7 3 9 5-6 5-5 3-4 1-4 3-1 2-4 7-7 17-10 10 1 4 2 1 2v10l-7 8-8 7-5 3-2 7-4 6h-6l-1-4-3 2-4 1 6 1 9 5 1 1v7l9-3 7-1 15 1 11 5 5 2 1 1v5l-4 5-7 1v2l-4 2h-8l-1 3-2 1h-7l1 8-6 9-1-3-6-1-4-3 1-6h-3l-1 4h-4l-4-10v-2l-38 1-3 2-5 1h-11l3 3 12 7 4 2h41l12 4 8 7 5 8v7l-4 2-3-1-1 4-8 1h-21l-7-2-2-2-7-2h-3l13 18 11 19 8 16 8 17 9 25 6 22 4 21 3 29v28l-1 5v15l10 14 5 11 3 12 1 9-1 9-5 16-8 16-6 7-8 4-4 1-18-1-1-3h-7l-9-5-1-2v-8l4-24v-30l-2-15-4-14-8-21-7-12-6-5-11-5-10-5-19-7-14-5-8-4-7-1-29-9-56-14v-2l-3-1 3-5-1-7 1-2 10 1 32 7 46 13 19 6 31 8h12l5-2 6-7 3-7v-15l-4-28-8-32-8-21-2-4v-4h-2l-11-20-11-16-8-9-3-7-5-6v-2l-4-1-14-15-20-20-5-6-15-8-18-7h-10l-1-4h2v-2l-11-2-21-6-2-1-13-2-12-5-10-8-17-8-5-1h-8l-6 4-2 3 1 10-5 3-11 1-3-1v-2l-7 1-25 1v-8l-5 1-2 9-4 2h-21l-3 3-2 4-24 6-6 2v-2l-1 1h-30l-3-7 4-6 5-4 6-3 11-2 4-1 4 1-3-5-5 1-3-5 3-4 6 1 2 3 4 1 1-4 5 1 4 6-1 6 6-1 7-3-4-3-10-8v-8l1-1-8-3-2-3h-9l-6-2-9-5-4-5-3-6v-5l3-3 4 1 5-1 13 4 9 2 8 3 2-5 4-2 7 3v6l-2 5 4 1 2-4 4-7 6 1 6 5-1 5-5 6 1 3 9 2 3 2 9 2 1 2 5 1 4-1 9 4-4-7-6-7-3-6-4-3-6-3-1-1-9-2-7-6-6-3-12-12-4-9v-10zm-1 65 4 1zm8 0-1 2 4-1zm340 20-2 3 5-2zm53 2m6 13m-1 1m-1 1m-1 1-3 4 4-2zm-4 4m-59 1-2 1 1 3 4-2zm49 11m-1 1m-1 1m-41 1m-19 2-4 4 6-1zm20 0m36 1m-34 3 1 3h2l-1-3zm-33 1v2h5l-1-2zm8 5v2h2v-2zm-15 7-4 9-1 6 2 1 5-5-3 4 4-1 3-3 1-3 3-1v-2l-6-1-2-4zm-13 3m24 0m70 0m-71 1m67 0m-2 1-2 2 4-1zm-3 2m33 9m-81 28m1 1m1 1 6 8 6 5-2-5-4-6z" fill="#224881"/>
<path transform="translate(699,661)" d="m0 0 5 5 12 13 10 14 11 18 9 17 9 23 6 21 1 5 10-5 14-10 10-7 2-4 5-56 1-5 12-2 10-3 7 2 2 3v8l-4 36v10l22 2 25 2 50 3 5 2 3 8v10l-4 10-6 9-5-1-7-8-6-3-14-1h-64l-9 1-10 8-12 9-17 13-11 8h-2l-1 41-2 16-5 24-1 4v8l11 18 8 14 9 21 8 24 7 28 8 48v6h-237l4-2 12-5 12-4 11-5 12-5 14-6 16-8 18-11 16-13 8-7 7-7 5-7h2l2-4 10-14h2l1-4 7-11 4-15 1-9v-52l-1-20-1-5-5 2h-10l-7-3-8-6v-2h-2l-5-8-2-12v-11l5-10 8-7 11-3 1-3-8-22-4-9-11-24-8-14-3-2-2 2 2-9 6-22 3-16 1-11z" fill="#CFC7D2"/>
<path transform="translate(131,677)" d="m0 0h16l4 3 1 3v39l2 12 5 5 12 9 23 15 16 10 16 11 5 3 3-12 6-16 8-16 6-11 16-22 9-10 2-1 2 3 3 20 6 25 4 18v18l-6 63-2 33-2 21-1 3-2 29-3 16-5 6-5 3h-2l-2 5-1 3v9l3 6 4 3 14 2-2 4-4 9-1 6-2-1-4-8-8-9-9-14-7-11-3-5v-2l-4-2-5-5-4 1 2-4 2-5-1-8-7-27-5-32-1-52-17-12-14-11-7-1-24 12-3 13-4 1-8-7-9-16 1-5 13-8 12-7h2l-3-5-32-24-16-4-16-2h-13l-10 3-6-1-4-7-1-4v-16l4-6 4-2h7l16 4 27 10 2-5 1-1v-8l-4-18v-9l5-5z" fill="#EDE7F0"/>
<path transform="translate(663,633)" d="m0 0h16l4 1 13 1 1 9 3 14-3 23-6 25-10 30-11 23-13 19-11 14-12 14-15 15-10 7-13 9-19 9-24 9-22 6-12 2-3-12 1-14 2-20v-19l-3-14-2-9 5-1v-2l17-9 2-2 5-2 13-13 5-7h2l2-4 5-7 2-1 3-7h2l3-9 6-13 4-2 9 4 16 8 10 7 9 7-1 8-13 23-9 13-3 7-3 6h2l2-4h3v-2l6-5 3-5 4-3h2l1-4 5-7 2-1 3-7 5-9 5-11 8-23 5-25h2l1-18v-13l-6 5-7 10-5-5v-2l-2 1 1 16v15l-2 2-22-10-9-3-11-1-2 1 1-7 4-11h-25v-1l26-1 4-3 23-7 5-1h7l3 5 5-2 8-7z" fill="#3A73C5"/>
<path transform="translate(615,21)" d="m0 0h24l12 5 10 9 6 7 5 10 10-2 9 1 10 4 9 7 6 7 5 11 5 14 7-1 4 2 7-7 13-8 2-2 14-5 10-5h13l-2 5-5 10-4 3 2 2v6l-4 5h-6l-1-1v-5l-3 2-1 3-3 1v3l3-1 5 4-1 5-6 11-5 6 6 7 3 9 5-6 5-5 3-4 1-4 3-1 2-4 7-7 17-10 10 1 4 2 1 2v10l-7 8-8 7-5 3-2 7-4 6h-6l-1-4-3 2-4 1 6 1 9 5 1 1v7l9-3 7-1 15 1 11 5 5 2 1 1v5l-4 5-7 1v2l-4 2h-8l-1 3-2 1h-7l1 8-6 9-1-3-6-1-4-3 1-6h-3l-1 4h-4l-4-10v-2l-38 1-3 2-5 1h-11l3 3 10 6v2l-8 1-4-2-3-3-6-4v-2l-4-2-2-7 1-4 5-4 2-4h3v-2h-6l-2-4-2-2h2l1-7 1-1h7l4 2v2h3l1-5 2-5h-4l-3 2-7 2-4 2-4 6h-2l-3-4 1-6 1-4v-14l-4-11-6-8-5-4-10-5-4-1h-15l-11 2-19 2-13 3-6 1h-10l-6-8-5-2h-20l-2 1h-7l-9-8-11-8-13-8-12-6-12-4v-3l7-7 13-6 7-2 14-1h20l8-9 5-5 7-5zm149 81-2 3 5-2zm53 2m6 13m-1 1m-1 1m-1 1-3 4 4-2zm-4 4m-59 1-2 1 1 3 4-2zm49 11m-1 1m-1 1m-41 1m1 2m36 1m-34 3 1 3h2l-1-3zm-29 16m70 0m-71 1m67 0m-2 1-2 2 4-1z" fill="#136273"/>
<path transform="translate(278,454)" d="m0 0h14l10 6 6 7 7 16 3 13v16l-4 16-3 9-4 5 4-2 10-7 11-6 12-8 12-6 7-4 8-1 3-2 11 1 14 3 10 9 5 11 1 4v17l-4 14-5 8-7 6-11 6-2 1-7 1-12 5-9 3-17 5h-2v2l-4 4 1 2h6l4 3 1 4v9l-3 4-3 1h-7l-5-3-2-4 1-12-3-3-8 1v3h-2l-1 7-5 5-7 1-5-3-4-6v-2l-20 7-7 2-3 1 2 4 5 3 1 3-5-2-11-7-4-2-7 1-45 9-23 3-4-2v-5l12-10 17-12 17-11 17-10 10-7 11-7 16-9 9-4 4-3h-6l-6-4-5-6v-2l-4-2-7-7-5-17-1-5v-13l3-15 5-13 6-9 8-6z" fill="#DB5E28"/>
<path transform="translate(295,783)" d="m0 0h1v12l4 1 9 13 3 3 2 11-2 29v8l13 4 52 6 19 2 3 1 1 23 1 47 4 18 12 3 4 5 2 5v10l-4 8-2 2-9-1-1 14-2 4h-2v3l-10 5-9 1-8-2-5-5-3-4-2-6 1-10 3-5 5-6v-32l-31-2 1 29 7 3 6 8 2 10-4 7-5 5-7 3-7-1-6-4-6-7-1-8 5-10 3-4v-33h-13l-11-1-2 14-1 22 8 7 4 8v9l-4 6-3 4-6 2h-12l-7-4-4-6-1-4v-7l4-8 2-3h-9l-7-2-5-6-1-3v-9l4-8 9-6 2-3 3-16 2-29 1-3 3-34 1-20z" fill="#6E9ED6"/>
<path transform="translate(305,650)" d="m0 0 14 2 18 5 2 5 10 1 3-2 13 1 6 2 3 23 5 22 5 14 8 15 12 13 5 5 6 2 17 1h12l-4 2-22 1 4 5 9 3v2l5 2-4 4-17 10-14 10-10 9-6 8-6 12-1 5v7l13 8 7 4 1 4-5-1-12-5-15-7-19-11-14-12-10-10-10-13v-2l-3-1-6-9-3-6-4-7-2 2-3-18-7-28-3-16-1-9-2-3 2-31 3-9 6-4 13-3z" fill="#6E9ED5"/>
<path transform="translate(560,664)" d="m0 0m-188 1 12 2 36 3 39 1h16l35-1 26-2h14v-2l12-1h2l-2 7h-2l-1 4-4 5-1 2h-2l-1 4h-2l-2 5-3 1-2 4-5 5-9 10-11 11-8 7-7 5h-2v2l-12 6-4 3-8 4-25 8-4 1-22 1-14-2-5-3-7-8-8-9-9-17-6-19-4-21z" fill="#EDE7F0"/>
<path transform="translate(663,641)" d="m0 0 2 1v13l-2 18h-2l-1 10-4 18-8 22-4 9-7 12-2 5-5 5-3 6-7 5-3 5-3 3h-2v2l-4 2-1 2h-2l1-5 3-4 3-7 10-15 10-18 1-8-8-6-15-10-11-5-10-4-3 1-1 5-8 17h-2l-2 7-5 5-5 7h-2l-2 4-9 10-5 4-3 4-5 2-10 6-8 4-21 5-11 2h-20l-31-7-5-2-9-3-5-7 23-1 24-7 14-5 9-5 10-6h3v-2l9-6 5-5 10-9 15-15 5-7 7-7 1-3h2l2-5 3-3 1-3h2l1-5h2l1-4 7-8 3-2h28l-1 6-3 8v3l1-1 11 1 16 6 15 7 1-1v-15l-1-16 3-1 4 6 4-4 6-8z" fill="#224881"/>
<path transform="translate(826,685)" d="m0 0 7 2 2 3v8l-4 36v10l22 2 25 2 50 3 5 2 3 8v10l-4 10-6 9-5-1-7-8-6-3-14-1h-64l-9 1-10 8-12 9-17 13-11 8h-2v2l-8 4-13 8-14 8-7 3h-9l-6-3-5-5-1-3v-10l3-6 10-7 14-9 15-10 12-9 16-10 19-13 3-5 5-56 1-5 12-2z" fill="#97241C"/>
<path transform="translate(615,21)" d="m0 0h24l12 5 10 9 6 7 5 10 10-2h6v1h-5v2h5l4 3v3h2l5 18 1 7v9l-1 3-3 1-18 1-11 2-19 2-13 3-6 1h-10l-6-8-5-2h-20l-2 1h-7l-9-8-11-8-13-8-12-6-12-4v-3l7-7 13-6 7-2 14-1h20l8-9 5-5 7-5z" fill="#3A72C3"/>
<path transform="translate(131,677)" d="m0 0h16l4 3 1 3v39l2 12 5 5 12 9 23 15 16 10 16 11 10 6 3 3 2 11v8l-3 9-1 1h-7l-7-2-17-12-14-11-7-1-24 12-3 13-4 1-8-7-9-16 1-5 13-8 12-7h2l-3-5-32-24-16-4-16-2h-13l-10 3-6-1-4-7-1-4v-16l4-6 4-2h7l16 4 27 10 2-5 1-1v-8l-4-18v-9l5-5z" fill="#98251D"/>
<path transform="translate(369,140)" d="m0 0 3 1 4 2-2 6-4 6-11 7-10 10-3 1-2 4-3 4h-2l-3 6h-2l-1 5h-2v2h-2l-2 4-6 7-4 4-2 5-3 3h-2l-1 5-2 2v2h-2l-6 15h-2l-2 5-1 3h-2l-1 5-4 4-5 10-2 1-1 5h-2l-1 6-3 5-5 12-2 7-2 5-3 1-3 6-2 1-35 1-6 1v-2l-3 1v-13l6-20 7-15 10-17 14-19 14-15 27-27 8-7 12-9 11-8 17-11 19-11z" fill="#92D8E2"/>
<path transform="translate(309,909)" d="m0 0 16 2 20 2 54 1 2 29 4 18 12 3 4 5 2 5v10l-4 8-2 2-9-1-1 14-2 4h-2v3l-10 5-9 1-8-2-5-5-3-4-2-6 1-10 3-5 5-6v-32l-31-2 1 29 7 3 6 8 2 10-4 7-5 5-7 3-7-1-6-4-6-7-1-8 5-10 3-4v-27l-1-6-21-2-2-4v-30z" fill="#3B74C5"/>
<path transform="translate(417,17)" d="m0 0 9 2 4 3 7 1v2l5 1 8 4 5 2 4 3v2h7l5 7 3 11 5 1 1 5-4 8 3-1 2 1v7l2 2 6 1v25h17l5-1 2-3 1 6-5 3-11 1-3-1v-2l-7 1-25 1v-8l-5 1-2 9-4 2h-21l-3 3-2 4-24 6-6 2v-2l-1 1h-30l-3-7 4-6 5-4 6-3 11-2 4-1 4 1-3-5-5 1-3-5 3-4 6 1 2 3 4 1 1-4 5 1 4 6-1 6 6-1 7-3-4-3-10-8v-8l1-1-8-3-2-3h-9l-6-2-9-5-4-5-3-6v-5l3-3 4 1 5-1 13 4 9 2 8 3 2-5 4-2 7 3v6l-2 5 4 1 2-4 4-7 6 1 6 5-1 5-5 6 1 3 9 2 3 2 9 2 1 2 5 1 4-1 9 4-4-7-6-7-3-6-4-3-6-3-1-1-9-2-7-6-6-3-12-12-4-9v-10zm-1 65 4 1zm8 0-1 2 4-1z" fill="#146375"/>
<path transform="translate(519,62)" d="m0 0 9 2 13 5 15 9 11 8 11 9 1 1h7l2-1h20l6 3 5 7h10l17-3 2-1 27-3 3-1h15l9 3 9 6 6 7 4 8 2 6v14l-4 13-3 7h-4v2l2 1-4 4-4-1-3-5-3-29-3-6-11-6-6-1h-16l-25 4-7 2-14-4-17-4-15-5-13-2-12-5-10-8-17-8-5-1h-8l-6 4-2 3-1 7-7 2h-16l-1-1v-17l1-8h-7l-2-3 1-7-2-1 7-4 5 2 2 5h5l5-4 8-4z" fill="#BB4C2E"/>
<path transform="translate(228,954)" d="m0 0 2 2h-2l1 8-1 2 5 19 6 16 7 15 7 11 10 14 7 9 8 10 5 6v2h-109l1-7 7-23 12-29 12-23 12-18z" fill="#EEE8F1"/>
<path transform="translate(237,944)" d="m0 0 1 4 4 2 5 6 6 9 5 9 12 17 6 7 2 5 1-5h1l3 11 5 5 4 2 10 1-3 3 9 8 27 15 19 9 17 6 5 2 15 5 3 3h-111l-10-13-10-12-8-12-7-10-8-16-7-17-5-17-1-6 1-5 1-8 3-4 4-2z" fill="#CEC6D2"/>
<path transform="translate(474,463)" d="m0 0h8l9 4 7 6 6 10 5 15 2 11v15l-4 18-5 13-10 11-5 3-4 1h-10l-7-2-10-9-5-9-5-15-2-10v-16l4-17 5-13 7-9 7-5z" fill="#020103"/>
<path transform="translate(547,756)" d="m0 0 7 6 9 12 5 11 9 26 7 13 4 7 4 3v2l4 1-19 9-24 9-22 6-12 2-3-12 1-14 2-20v-19l-3-14-2-9 5-1v-2l17-9 2-2 5-2 1-2z" fill="#6D9ED5"/>
<path transform="translate(278,454)" d="m0 0h14l10 6 6 7 7 16 3 13v16l-4 16-3 9-4 5-17 10-7 3-6-1-9-9v-2l-4-2-7-7-5-17-1-5v-13l3-15 5-13 6-9 8-6z" fill="#030204"/>
<path transform="translate(456,780)" d="m0 0 29 1 1 1v8l1 2v15l-3 17-5 19-3 22h20v1h-36l-20-1-10-3-12-2v-22l3-12 6-12 10-14 9-10z" fill="#6D9ED5"/>
<path transform="translate(663,633)" d="m0 0h16l4 1 13 1 1 9 3 14-3 23-6 25-9 27-5-5-9-12-11-16v-7l4-20h2l1-18v-13l-6 5-7 10-5-5v-2l-2 1 1 16v15l-2 2-22-10-9-3-11-1-2 1 1-7 4-11h-25v-1l26-1 4-3 23-7 5-1h7l3 5 5-2 8-7z" fill="#6E9ED5"/>
<path transform="translate(378,509)" d="m0 0h18l7 4 7 8 4 9 1 4v17l-4 14-5 8-7 6-11 6-2 1-7 1-12 5-9 3-17 5h-2v2l-4 4 1 2h6l4 3 1 4v9l-3 4-3 1h-7l-5-3-2-4 1-12-3-3-8 1v3h-2l-1 7-5 5-7 1-5-3-4-6v-2l-20 7-7 2-3 1 2 4 5 3 1 3-5-2-11-7-4-2 4-2 14-4 25-6 4-4 7-2v-3l3-2-2-18 4 1 4 12 7 1 1-4h2l-1-8-6-11-4-6 1-2 4 1 2 1v2l3 1 10 13 1 5h12v-2h12l5 1 9-3 3-6 5-2 9-8 1-2h2l3-16-2-9-6-12-8-10-2-5z" fill="#BC4B2D"/>
<path transform="translate(663,641)" d="m0 0 2 1v13l-2 18h-2l-1 10-4 18-8 22-4 9-7 12-2 5-5 5-3 6-7 5-3 5-3 3h-2v2l-4 2-1 2h-2l1-5 3-4 3-7 10-15 10-18 1-8-8-6-15-10-11-5-10-4-2 1 3-9 8-21 2 2 1-1 11 1 16 6 15 7 1-1v-15l-1-16 3-1 4 6 4-4 6-8z" fill="#3A73C5"/>
<path transform="translate(656,698)" d="m0 0 4 5 14 20 4 5 3 2v6l-11 23-13 19-11 14-12 14-10 10-3-4-8-20-5-10 1-4 11-10 6-8 4-7 5-5 3-7 5-9 5-11z" fill="#6D9DD5"/>
<path transform="translate(297,769)" d="m0 0 2 2 4 7 7 12 5 6 8 10 9 10 13 12 22 13 11 5 6 3v2l9 3 5 2 1 2v15l-40-4-34-4-13-4-1-1 1-24 1-14-1-10-3-1-10-15-3-1v-22z" fill="#3972C4"/>
<path transform="translate(515,773)" d="m0 0 4 1-5 1 5 16 1 7v19l-3 31 2 10v5l-1 1-10 1h-32v-10l3-15 5-19 2-14v-15l-1-3v-7l-1-2 14-3z" fill="#3A73C5"/>
<path transform="translate(615,21)" d="m0 0h24l-2 2-3 1 9 1v2h-2v3l-11 3-7 4-7 8-7 11-7 18-8 3-3 1-4-4-1-2-10-5-19 1-9 1-5-2v3l5 2-2 1-12-6-12-4v-3l7-7 13-6 7-2 14-1h20l8-9 5-5 7-5z" fill="#6F9ED5"/>
<path transform="translate(589,696)" d="m0 0 19 8 11 7 10 7 5 4-1 8-13 23-11 16-2 3h-4l-10-15-10-11-11-8-4-2 1-7 3-2 3-7h2l3-9 6-13z" fill="#6D9DD5"/>
<path transform="translate(380,311)" d="m0 0h21l35 1 33 2 9 1 1 1h5l1-1h9l42 4 30 4 30 5 1 4-3 7-1 4-14-1-29-5-61-8-8-2h-12l-41-5-56-4-2-4 2-2z" fill="#224881"/>
<path transform="translate(459,100)" d="m0 0 5 1-1 8 4 1-1 4-11 5-10 4-25 13-19 12-14 9-12 9-14 13-5 5-7 8h-2l-2 4-9 11-6 8h-2l-2 5-9 13-9 15-6 11-11 25-10 26-4 5h-6l-3-3 1-5 5-13 5-11 2-7h2l2-6 10-18 6-10 2-5 5-6 13-18 1-2h2l2-4 6-7 1-2h2l2-5 5-5h2v-2h2l2-4 6-7 6-5 15-15 6-4 4-5 11-7 16-11 14-7 5-8v-1h21l3-1 2-9z" fill="#8CC7DC"/>
<path transform="translate(526,536)" d="m0 0h17l9 6 5 7 4 13-1 9-4 8-10 10-9 3-12-1-9-5-5-4-5-8-2-7v-9l4-10 4-5 10-6z" fill="#F6B5AE"/>
<path transform="translate(683,51)" d="m0 0h8l10 4 9 7 6 7 5 11 5 14 7-1 4 2 7-7 13-8 2-2 14-5 10-5h13l-2 5-5 10-4 3 2 2v6l-4 5h-6l-1-1v-5l-4 4h-6l2-7 3-3h2l-1-5-6 4-2 2-7 2-2 1v3l5 3-3 1-9 2-10 7-5 5-8 6-1 5 1 9-1 13-1 3h-2l-1 3 1-6 1-4v-14l-4-11-6-8-5-4-14-7 6-1v-12l-3-14-2-11h-2v-3l-9-3z" fill="#224982"/>
<path transform="translate(519,62)" d="m0 0 9 2 13 5 15 9 11 8 9 7-1 6 1 3-2 3-7-2v-2l-6 1-8-3-19-9-5-1h-8l-6 4-2 3-1 7-7 2h-16l-1-1v-17l1-8h-7l-2-3 1-7-2-1 7-4 5 2 2 5h5l5-4 8-4z" fill="#BC4D2E"/>
<path transform="translate(247,535)" d="m0 0h9l6 3 6 5 6 8 5 3h7l-5 5-15 7-10 6-20 13-8 5-4-4-2-5-2-9-1-9 4-12 7-9 9-5z" fill="#F5B5AE"/>
<path transform="translate(390,740)" d="m0 0 5 1 7 8 5 6v2l-9 7-14 5-44 7-11 3v-2l-4-2-7-14-2-9h36l17-3 19-7z" fill="#3A73C5"/>
<path transform="translate(420,1008)" d="m0 0h9l8 3 6 7 4 10v13l-4 8-4 5-8 5-8 1-9-3-8-7-4-8-1-11 4-13 7-7z" fill="#121C30"/>
<path transform="translate(414,860)" d="m0 0h9l15 3 4 2 5 10 1 3v13l-4 8-5 6-7 4h-12l-7-3-7-8-3-7v-15l3-7z" fill="#121C30"/>
<path transform="translate(424,683)" d="m0 0 10 2 6 4 6 8 2 7v11l-6 12-5 4-7 3h-8l-8-3-5-4-5-9-1-3v-11l3-8 4-6 6-5z" fill="#121D31"/>
<path transform="translate(369,140)" d="m0 0 3 1 4 2-2 6-4 6-11 7-10 10-3 1-2 4-3 4h-2l-3 6h-2l-1 5h-2v2h-2l-2 4-6 7-4 4-2 5-3 3h-2l-1 5-2 2v2h-2l-6 15h-2l-2 5-1 3h-2l-1 5-4 4-5 10-2 1-1 5h-2l-1 6-3 5-5 12-2 7-2 5-3 1-3 6-2 1h-27v-1l20-1 7-3 4-9 6-16 7-15 12-23 2-3h2l1-5 8-12 7-10 5-7h2l2-5 12-15 7-8 9-10 7-7 4-7h-5l-6 4-4 1-5 5-8 6-5 1v2l-9 5-8 7-4 3h-5v2l-5 1 2-4 7-8 12-9 11-8 17-11 19-11z" fill="#8CC5DC"/>
<path transform="translate(603,330)" d="m0 0 10 1 32 7 35 10v2l9 2 3 1 1 11-2 4-13-4-23-4-52-13v-2l-3-1 3-5-1-7z" fill="#224881"/>
<path transform="translate(663,641)" d="m0 0 2 1v13l-2 18h-2l-1 10-4 18-8 22-4 9-7 12-2 5-5 5-3 6-7 5-3 5-3 3h-2v2l-4 2-1 2h-2l1-5 4-6h2l2-4 12-20 7-12 8-24 4-17 1-7v-13l-1-17 5 4 2-1 3-7z" fill="#224881"/>
<path transform="translate(308,689)" d="m0 0 13 2 25 1 29-1 3 14v7l-5 1-14 1h-16l-33-4-3-1-1-6v-11z" fill="#3A73C5"/>
<path transform="translate(296,943)" d="m0 0h7l3 1v15l-1 22 8 7 4 8v9l-4 6-3 4-6 2h-12l-7-4-4-6-1-4v-7l4-8 7-6 4-2 1-2z" fill="#335793"/>
<path transform="translate(343,949)" d="m0 0h1l1 28 7 3 6 8 2 10-4 7-5 5-7 3-7-1-6-4-6-7-1-8 5-10 3-4 1-27h10z" fill="#4078C7"/>
<path transform="translate(576,94)" d="m0 0 3 2h7l2-1h20l6 3 5 7 5 1v6l5 5 2 1 1-2 5 2 1 1h26v1l-25 4-7 2-14-4-17-4-15-5-13-2-12-5-6-5 3-1 9 1v2l7 1 1-4-1-2z" fill="#BC4C2E"/>
<path transform="translate(656,698)" d="m0 0 4 5 14 20 4 5 3 2v6l-11 23h-4l-5-5-9-10-7-8h-2l-3 3 2-6 2-2 6-16z" fill="#3A73C5"/>
<path transform="translate(380,311)" d="m0 0h21l35 1 33 2 9 1 1 1h5l1-1h9l21 2v1h-22l-5 3-2 3h-2v2l23 3 11 2v1l-12-1-22-3-8-1-14-1-34-4-56-4-2-4 2-2z" fill="#325590"/>
<path transform="translate(690,102)" d="m0 0 3 2h7l7 3-1-4 5 3 6 7 4 8 2 6v14l-4 13-3 7h-4v2l2 1-4 4-4-1-3-5-2-18v-10h1l2 12 3 1 1-12-1-1-1-8-11-6-5-4-4-1-1-3-3-3v-2l-2-1 2-2z" fill="#A72D27"/>
<path transform="translate(280,699)" d="m0 0 3 3 3 20 1 10-6 4-5-1v-2l-8 3-8 9-8 14-4 9-6 9-8-1 4-12 9-20 11-18 9-12 8-10z" fill="#FDFDFD"/>
<path transform="translate(383,980)" d="m0 0 7 1 8 10 6 3h3v13l-2 4h-2v3l-10 5-9 1-8-2-5-5-3-4-1-8 2-10 8-7 2-3z" fill="#234982"/>
<path transform="translate(388,92)" d="m0 0 6 1 2 3 4 1 1-4 5 1 4 6-1 6 6-1 6-2 1 1h8v3l-7 2-4 1 1 3-14 8-5 3h-7l-5-1-7 1v2l4 1h-21l-3-7 4-6 5-4 6-3 11-2 4-1 4 1-3-5-5 1-3-5z" fill="#298598"/>
<path transform="translate(387,949)" d="m0 0h6l5 6 2 5h1l1-7h1l2 8 12 3 4 5 2 5v10l-4 8-2 2-9-1-1 2-5-1-6-4-6-8-3-3-1-29z" fill="#3E76C6"/>
<path transform="translate(455,469)" d="m0 0 3 1-1 5-4 6-6 18-2 10v16l4 17 5 12 6 8 5 4v3l5 2 4 1v2l10 1 4 1v3l-6 5-1 8 2 8-5 3-2-4-4-3-1-5 2-4v-9h-2v-2l-11-2-12-8-5-10-5-24-1-14 1-12 2-9 2-5 1-7 5-9 4-6z" fill="#EDE7EF"/>
<path transform="translate(289,943)" d="m0 0 6 1 2 7v27l-4 4-7 4-14-2-6-5-2-5v-9l4-8 9-6 3-3 1 2h3l2-4h2z" fill="#6F9FD6"/>
<path transform="translate(398,577)" d="m0 0 3 1-13 7-2 1-7 1-12 5-9 3-17 5h-2v2l-4 4 1 2h6l4 3 1 4v9l-3 4-3 1h-7l-5-3-2-4 1-12-3-3-8 1v3h-2l-1 7-5 5-7 1-5-3-4-6v-2l-20 7-7 2-3 1 2 4 5 3 1 3-5-2-11-7-4-2 4-2 14-4 21-5h4l4 8 2 1h9l3-3 1-3v-9l15-5 17-5 49-16z" fill="#D3C5CE"/>
<path transform="translate(851,164)" d="m0 0 4 1 1 1v5l-4 5-7 1v2l-4 2h-8l-1 3-2 1h-7l1 8-6 9-1-3-6-1-4-3 1-6h-3l-1 4h-4l-2-8v-6l1-2 7-2v-2l7-1h8v-2l24-2 2 1 1 1z" fill="#146475"/>
<path transform="translate(756,205)" d="m0 0 10 1 14 4h10l8 3 8 1h7l6 1 3-3 2 4v7l-4 2-3-1-1 4-8 1h-21l-7-2-2-2-7-2-4-6-4-2-5-8z" fill="#288298"/>
<path transform="translate(218,968)" d="m0 0 4 5 1 4-6 12-8 13-10 16-4 7-2 5-2 3-2 11-3 12-1 2-1 10h-10l1-7 7-23 12-29 12-23z" fill="#FEFEFE"/>
<path transform="translate(314,799)" d="m0 0 5 2 9 11 10 10 10 8 21 12 13 6 2 1v2l9 3 5 2 1 4-5 1-15-5-11-5-9-4-15-8-16-12-10-9-4-6z" fill="#325896"/>
<path transform="translate(72,711)" d="m0 0h7l16 4 27 10 2-5h3l1 6-1 3-5 2h-13l-26-8-7-2v9l-2 15-1 2-5-2-4-10v-16l4-6z" fill="#DC602C"/>
<path transform="translate(750,411)" d="m0 0 4 2 9 17 7 21 2 14-1 11-3 8-1 2h-2v2l-4 1-3-3 1-10v-17l-4-18-9-22v-5z" fill="#234881"/>
<path transform="translate(753,197)" d="m0 0h46l12 4 8 7 2 5v2l-4 1-4-1h-9l-13-3-5-1-11-1-13-4-10-2-1-5z" fill="#116171"/>
<path transform="translate(783,68)" d="m0 0h13l-2 5-5 10-4 3 2 2v6l-4 5h-6l-1-1v-5l-4 4h-6l2-7 3-3h2l-1-5-6 4-2 2-7 2-9 6-3 1-1 2-5 1v-5l10-10 9-6 10-4z" fill="#146073"/>
<path transform="translate(282,352)" d="m0 0 6 1 1 8-10 14-2 7v10l4 13v5l-7 1-5-5-4-8-2-16 4-13 8-11z" fill="#6E9ED6"/>
<path transform="translate(265,340)" d="m0 0h6l3 3-1 5-10 8-9 9-5 10-3 17-4 4-5-2-2-3v-14l5-12 6-9 11-11h2v-2z" fill="#6E9ED6"/>
<path transform="translate(352,326)" d="m0 0 7 1v6l-5 8-11 15-5 15-4 13-5-1-4-8v-8l4-12 8-13 8-10z" fill="#6E9ED6"/>
<path transform="translate(680,349)" d="m0 0 7 1 42 12 12 3 12 1v1h-13l-11-2-9-3-14-3v2h-2v9l2 2 4 1v2l9 2v2l11 2v2l9 2 16 8h3v2l5 2 6 7 7 18 5 14 4 17 2 22-1 20-2 12h-1l1-13v-30l-2-15-4-14-8-21-7-12-6-5-11-5-10-5-19-7-14-5-8-4-7-1-25-8v-1l9 1 12 3 7 2 1-8-1-4 1-2-9-2z" fill="#325590"/>
<path transform="translate(690,715)" d="m0 0 4 4 3 8 10 19 10 23 7 21v5l-5 3-9 3-7 6-3 9 1 17 3 8 1 3 4 2 6 4 8 1h9l4-1 3 3 2 9v16l1 3-1 9 1 20-2 26-3 17-7 12-5 5 1-4 7-11 4-15 1-9v-52l-1-20-1-5-5 2h-10l-7-3-8-6v-2h-2l-5-8-2-12v-11l5-10 8-7 11-3 1-3-8-22-4-9-11-24-8-14-3-2-2 2 1-6z" fill="#D9D7DF"/>
<path transform="translate(303,984)" d="m0 0 5 2 7 5 2 5v9l-4 6-3 4-6 2h-12l-7-4-1-4 5-1-1-5 7 1v2l6-3h4v-6l-5-1-1 4-3 3-5-5 2-4 2-2v-2h2l1-2h4z" fill="#224982"/>
<path transform="translate(526,89)" d="m0 0h8l19 9 9 8 18 6-1 4-5-1-15-4-19-2-16-4v-9l1-3z" fill="#3B73C3"/>
<path transform="translate(556,660)" d="m0 0h12l-2 4-2 3v-2l-4 1h-10v2l-40 3-35 1h-16l-39-1-24-2v-1l106-1 41-4z" fill="#CDC8D4"/>
<path transform="translate(768,774)" d="m0 0 2 1-1 4 1 2-4 2v2h-3v2l-4 3h-4v2h-2l-1 6-2-1-1 2h-2v2h-3v2l-6 3h-2v2l-8 6h-4v2l-4 2-10-2-2 1 2-4 20-13 15-10 14-10z" fill="#AA2E28"/>
<path transform="translate(237,944)" d="m0 0 1 4 4 2 5 6 6 9 5 9 12 17 6 7-1 2-6-5-7-8-2-2v-3h-2l-5-8-3-6v-2l-3-1v-2l-10-1-2 19 3 8v9l-3-4-7-23-1-6 1-5 1-8 3-4 4-2z" fill="#D9D7DF"/>
<path transform="translate(459,100)" d="m0 0 5 1-1 8 4 1-1 4-11 5-10 4-23 12h-5l-5 1-1-2h2v-2l12-7 4-9 2-4h21l3-1 2-9z" fill="#90D5E0"/>
<path transform="translate(620,122)" d="m0 0 7 2v2l9 2 11 4 9 2 10 5v2l5 2 7 2 8 5 6 3 5 5 4 3-1 4-11-3-4-2 2 5 9 10 7 8-1 2-15-16-20-20-5-6-15-8-18-7h-10l-1-4h2z" fill="#325590"/>
<path transform="translate(766,134)" d="m0 0h1l-1 10h8l-4 5-3-1h2l-1-2-3-1v-2l-5 5v3l2 1-1 5 5 1 2-1h9v-2l16-2h4l4 3-12 6-9 3-16 2h-7l-4-4-1-9 3-8 5-8z" fill="#288597"/>
<path transform="translate(417,17)" d="m0 0 9 2v1h-6l3 9 5 5 5 1v2l4-2v3h4v2l6 2 16 12 2 6-3 1-4-1v-2l-10-3-14-7-5-1-9-9-4-9v-10z" fill="#288597"/>
<path transform="translate(708,396)" d="m0 0 6 2 4 5 7 14 3 13v9l-3 7-4 1-3-3-3-19-4-12-5-9-1-6z" fill="#325590"/>
<path transform="translate(231,785)" d="m0 0 13 3 4 5 1 3v17l-5 13-5 5-5-1-6-4-3-1v47h-1v-52l13 1 3-9-1-16-3-5-5-4z" fill="#D0C9D3"/>
<path transform="translate(238,795)" d="m0 0 2 1 1 16-3 9-1 1h-7l-7-2-17-12 2-4h24z" fill="#70282C"/>
<path transform="translate(371,61)" d="m0 0 2 1 16 1 14 3 14 1 8 5v3l-6 1-19-2-1 2h-9l-6-2-9-5-4-5z" fill="#2A8698"/>
<path transform="translate(399,315)" d="m0 0h55l15 1 6 2v6h-12l-29-3-12-1-18-1-6-2z" fill="#214780"/>
<path transform="translate(756,205)" d="m0 0h6l7 4 8 3 12 3 18 2h9l1 2-3 3-2 1h-28l-12-2-2 1-3-5-4-2-5-8z" fill="#8AC5DB"/>
<path transform="translate(844,168)" d="m0 0 3 1-2 4-14 4h-5v2l-12 2h-8v2h2v6h-3l-1 4h-4l-2-8v-6l1-2 7-2v-2l7-1h8v-2z" fill="#2C8799"/>
<path transform="translate(820,775)" d="m0 0m-4 1h4l-1 4-19 14-15 12-14 10h-2v2h-8l6-9 4-4 4-2 4-4 10-4 4-3h2l1-3 15-9 1-2h4z" fill="#732D31"/>
<path transform="translate(373,504)" d="m0 0 18 1 12 6 6 6-1 2-9-8-19-4h-6l-5 2-9 2-13 8-11 6-9 6-11 6-8 6-3 1v-2l5-5 5-15 1-5 5-1 2 6 1 4 3 1 12-6 10-6 14-8z" fill="#EAE4EC"/>
<path transform="translate(490,78)" d="m0 0 2 1-1 13 9-2 5-3 3-1 5 3 1 5-2 9-7 2h-16l-1-1v-17l1-8z" fill="#97231B"/>
<path transform="translate(698,422)" d="m0 0 5 2 3 4 5 16-1 10-4 6-2 2-4-1-2-19-2-11v-7z" fill="#325590"/>
<path transform="translate(431,105)" d="m0 0h8l5 2v3l-2 2-11 1-3 3-2 4-24 6-6 2v-2l-1 1h-9l-4-1v-2l10-2 7 1 6-2 8-5 6-4v-2l5-2 6-2z" fill="#295B91"/>
<path transform="translate(803,715)" d="m0 0 4 1 2 7 1 4v10l-3 15-5 2-1 2h-3l-1 4v-2h-2l-2 4v-2l-2-1 6-5 2-12 2-26z" fill="#AB332D"/>
<path transform="translate(399,613)" d="m0 0h6l5 4 1 2v10l-4 4-8 1-6-2-2-5v-7l3-5z" fill="#131F35"/>
<path transform="translate(431,608)" d="m0 0 8 1 4 5 1 7-3 6-4 2h-8l-5-5-1-8 3-6z" fill="#060911"/>
<path transform="translate(487,579)" d="m0 0h7l5 3 1 2v11l-4 5-12-1-3-4-1-8 3-5z" fill="#15223B"/>
<path transform="translate(207,449)" d="m0 0 3 1 1 7-1 44-2 9-3 1-1-10v-50z" fill="#E3E0EC"/>
<path transform="translate(462,596)" d="m0 0h6l5 4 1 2v9l-5 5-8 1-5-3-2-5 1-8 4-4z" fill="#141F36"/>
<path transform="translate(367,612)" d="m0 0 7 1 4 5 1 6-4 7-2 1h-10l-4-4-1-8 3-6z" fill="#142037"/>
<path transform="translate(296,943)" d="m0 0h7l3 1v15l-2 22h-9l1-3z" fill="#3F77C6"/>
<path transform="translate(335,609)" d="m0 0 8 1 4 5v9l-3 4-3 1h-7l-5-3-2-4 1-8 4-4z" fill="#152138"/>
<path transform="translate(511,502)" d="m0 0 2 4 1 16 2 5v10l7-2 7-1h10l5 2-2 1h-17l-10 4-5 4-5 9h-2l-2 9-2 2-5-1 2-4 5-7 5-14 3-15z" fill="#F4F4F6"/>
<path transform="translate(444,500)" d="m0 0h1v25l4 17 5 12 2 3 1 5 2 4 5 1-1 3h-5l-5-5-5-6-2-8h2v-3h-2l-3-6v-6l-3-11-1-3 1-5-1-7 1-7h2v-2z" fill="#F5F4F6"/>
<path transform="translate(838,769)" d="m0 0h9 4l14 1h3v2h12l10 3v1h-66l5-5z" fill="#6D252A"/>
<path transform="translate(323,997)" d="m0 0 2 1 5 10v3l3 1v3 3l-5-2-4-1-10 5-1 1-7-1v-3l4-2 2-4 5-8 1-5z" fill="#FAFBFC"/>
<path transform="translate(361,420)" d="m0 0 64 1v1l-35 1h-25l-52 1-13 3-28 1-6 2-17 1-6 1 1-2 3-1 17-1 6-2 28-2 9-2z" fill="#D8D6DE"/>
<path transform="translate(638,733)" d="m0 0 3 1-1 5-3 5-2 5-5 5-3 6-7 5-3 5-3 3h-2v2l-4 2-1 2h-2l1-5 4-6h2l2-4 5-5 6-9 2-4h2l2-7z" fill="#234982"/>
<path transform="translate(293,264)" d="m0 0h3l-1 7-5 12-2 9-6 15h-2l-2 4-4-1 1-6 4-10 3-9 5-11z" fill="#90D7E1"/>
<path transform="translate(783,68)" d="m0 0h13l-2 5-5 10-4 3 2 2v6l-4 5h-6l-2-6 2-7 2-5 5-6 2-1v-5z" fill="#244D84"/>
<path transform="translate(315,311)" d="m0 0h42l6 2-1 3-8 1-49-1-4-3 1-1z" fill="#325590"/>
<path transform="translate(756,197)" d="m0 0h43l12 4 2 2-2 1 2 4-4-2-6-2-7-1-37-1-3-3z" fill="#378C9F"/>
<path transform="translate(619,106)" d="m0 0h5v6l5 5 2 1 1-2 5 2 1 1h26v1l-25 4-7 2-14-4-3-5-1-2h2z" fill="#95241E"/>
<path transform="translate(664,119)" d="m0 0h16l8 2 2 1-3 9-1 1h-7l-7-3-5-2v-2l-5-1-5-2v-2z" fill="#325793"/>
<path transform="translate(301,381)" d="m0 0h7l5 5 1 6-2 5-3 2h-9l-4-4v-9z" fill="#6E9ED6"/>
<path transform="translate(816,119)" d="m0 0 4 2-3 4-1 2-7 3-4 1 3 3v3l3 1-2 5-3 5h-6l-1-4-3 2-1-2 1-9 2-5 10-5 5-3z" fill="#85C0D9"/>
<path transform="translate(131,677)" d="m0 0h16l4 3 1 3v9l-1 7-5-1-5-10-7-4-5-6z" fill="#70272C"/>
<path transform="translate(928,764)" d="m0 0h4v17l-6 9-5-1-6-7v-2h2l2-4h2l3-7z" fill="#71292D"/>
<path transform="translate(387,949)" d="m0 0h6l3 3 1 4v9l-4 9-2 6-4-1-1-29z" fill="#ECE8F0"/>
<path transform="translate(484,96)" d="m0 0 3 1-1 4-5 2-16 1-1 4 2-1 21-1 12-1h13v-5l2 2-1 5-9 3-9-1v-2l-7 1-25 1v-8l-6 1 1-3 9-2z" fill="#288497"/>
<path transform="translate(338,419)" d="m0 0h58l28 1v1h-63l-54 2-9 2-11 1h-13v-2l24-2 11-2z" fill="#6E9ED6"/>
<path transform="translate(459,100)" d="m0 0 5 1-1 8 4 1-1 4-11 5-10 4-2-1 3-2-5-4-4-2h-5l-1-2h21l3-1 2-9z" fill="#8AC4DB"/>
<path transform="translate(229,894)" d="m0 0 1 2 3 1 1 7 1 9 5 7 4 13 2 5v3l-5 1-4-1-1-10-7-27-1-7z" fill="#FDFDFD"/>
<path transform="translate(620,122)" d="m0 0 7 2v2l9 2 18 7 9 5 14 14 7 8 14 15 5 6-1 2-15-16-20-20-5-6-15-8-18-7h-10l-1-4h2z" fill="#3A73C5"/>
<path transform="translate(726,464)" d="m0 0 6 1 4 3 1 7-5 6h-8l-4-4-1-6 2-4z" fill="#325590"/>
<path transform="translate(640,711)" d="m0 0h1l-1 8 4 1 2 2 2-1-3 10-4 4h-4l-4 4h-2l1 3h-2l-1 4-2 1-4 8-7 9v-3l14-24 5-10z" fill="#31548F"/>
<path transform="translate(400,856)" d="m0 0 9 2 4 2-2 4-6 8-1 4-1 13h-1l-2 7h-1v-37z" fill="#EDE9F0"/>
<path transform="translate(417,17)" d="m0 0 3 1-1 6 2 8 3 6 10 5 7 4v2h5l8 3 6 2v2l3 1-2 2-5-1-12-5-10-5-5-1-9-9-4-9v-10z" fill="#8CC7DB"/>
<path transform="translate(507,484)" d="m0 0 4 2 3 6 1 4 2 9 1 21-1 7-2 1v-7l-2-5-1-16-2 3-3-15-1-9z" fill="#EEE8F1"/>
<path transform="translate(388,92)" d="m0 0 6 1 2 3 4 1 1-4 5 1 4 6-1 6-9 1-4-2-3-5-5 1-3-5z" fill="#E1E1E5"/>
<path transform="translate(308,607)" d="m0 0h6v7l-3 6-2 1h-9l-5-5-1-4 4-3z" fill="#141F36"/>
<path transform="translate(576,94)" d="m0 0 7 3-1 5 1 8-2 2-8-1-12-5-6-5 3-1 9 1v2l7 1 1-4-1-2z" fill="#942B28"/>
<path transform="translate(225,828)" d="m0 0 5 3 2 10-1 18-2 6-4 1z" fill="#FDFDFD"/>
<path transform="translate(553,321)" d="m0 0h9l39 6 4 1v2h-2v6l1 3-3 5 2 2-17-2-3-2h10l1-5 2-7v-2l-10-1-33-5z" fill="#325794"/>
<path transform="translate(701,134)" d="m0 0h1l2 14 10 5 5-1-3 9h-4v2l2 1-4 4-4-1-3-5-2-18z" fill="#912620"/>
<path transform="translate(386,108)" d="m0 0h9l2 1-1 3-10 2-3 3-9 2h-4l-5-1 1-4 5-4 3-1z" fill="#116171"/>
<path transform="translate(431,56)" d="m0 0 6 1 6 5-1 5-6 8h-2v-2l-7-4-2-4z" fill="#EBE6EE"/>
<path transform="translate(436,99)" d="m0 0h5l6 3h10l-1 9-4 2h-12l4-5-5-2-8-1v-3z" fill="#288597"/>
<path transform="translate(481,78)" d="m0 0h6l2 1v25h17l6-1v2l-2 1h-14l-9 1-23 1 1-5 16-1 5-2v-15l-1-4-4-1z" fill="#2D548E"/>
<path transform="translate(826,685)" d="m0 0 7 2 2 3v8l-2 2-2-4-6-3-15 1-6-1v-3l12-2z" fill="#753338"/>
<path transform="translate(663,641)" d="m0 0 2 1v13l-2 18h-1l-1-11-3 4h-2l-1-4v-6l-2-1 2-5z" fill="#335998"/>
<path transform="translate(348,834)" d="m0 0 4 1v2l9 2 3 3 10 4v2l3 1-1 3h-6l-10-4-7-4-4-4-2-1z" fill="#244983"/>
<path transform="translate(328,536)" d="m0 0h7l11 8 4 4 5 10 1 7h-3l-4-7-6-8v-2h-3v-3l-4-1-5-4v-2h-3z" fill="#BD4D2E"/>
<path transform="translate(758,116)" d="m0 0h3l-2 4-12 12-8 6-7 2-1-4 3-3 13-10 8-6z" fill="#288597"/>
<path transform="translate(373,504)" d="m0 0 18 1 12 6 6 6-1 2-9-8-19-4h-6l-5 2-9 2-13 8-11 6-9 6-6 3-2-1 12-7 16-10 16-9z" fill="#EEB8B5"/>
<path transform="translate(819,184)" d="m0 0 5 4-1 7-5 7-1-3-6-1-4-3 1-6 6-4z" fill="#E4E4E6"/>
<path transform="translate(538,92)" d="m0 0 9 3 8 5 7 6 8 3v1l-15-1-12-2-2-1 1-4 5-2-1-3-8-4z" fill="#325590"/>
<path transform="translate(730,93)" d="m0 0 8 2v10l-5 4-5 1-3-2-1-9 2-4z" fill="#CBD5E1"/>
<path transform="translate(772,81)" d="m0 0 2 4-5 5-3 7h6v1l-3 1-1 4-4-2v-2l-4-1-6-4 1-4 3-2 7-2 5-4z" fill="#478ABA"/>
<path transform="translate(715,404)" d="m0 0 5 5 1 4h2l2 4 2 20-3 3-3-5-1-10-2-4-1-9h-2l-1-3z" fill="#224781"/>
<path transform="translate(760,207)" d="m0 0 14 7 7 3 6 3 18 1-2 2h-19l-12-2-2 1-3-5-7-9z" fill="#90D5E0"/>
<path transform="translate(494,583)" d="m0 0 6 1v11l-3 4-8-1-5-5 4-5h6z" fill="#020104"/>
<path transform="translate(730,149)" d="m0 0h7l4 2 1 6-5 5-5 1-3-1-1-3-2-2h2l1-7z" fill="#E7E5EE"/>
<path transform="translate(431,105)" d="m0 0h8l5 2v3l-4 2h-10l-9 4-1 2-5 1-2-3 6-4v-2l5-2 6-2z" fill="#106070"/>
<path transform="translate(767,444)" d="m0 0 2 3 2 8 1 13-2 11-3 7h-2v2l-4 1-3-3 2-25h1v23l3-3 2-5h2l1-12-1-9-2-10z" fill="#325590"/>
<path transform="translate(486,64)" d="m0 0 5 2 2 5 3 1-3 3-3 4h-8l-2-3 1-7-2-1z" fill="#CFC8D3"/>
<path transform="translate(451,757)" d="m0 0 3 1-2 2-5 1-3 3h-2v2l-9 2-7-2v-2l-3 2 1 2-3-1-4-6 23-1z" fill="#345995"/>
<path transform="translate(823,111)" d="m0 0h2l-1 6-3 3-4 1h-2l-4 4-11 5h-2l-2 11h-1l-1-8 5-6 13-10 9-5z" fill="#2B8799"/>
<path transform="translate(317,809)" d="m0 0 4 1 3 2 3 6 4 3v2h2l1 2 6 3-1 4-7-2-10-8-2-2-2-8 1-2z" fill="#234882"/>
<path transform="translate(530,534)" d="m0 0h10l5 2-2 1h-17l-10 4-5 4-5 9h-2l-2 9-2 2-5-1 2-4 5-7 1-3 4-1 2-6 4-3 1-5h2v2l7-2z" fill="#EEE8F0"/>
<path transform="translate(508,64)" d="m0 0h7l1 3-3 6-8 5-3-1-1-1-3-1 1-5z" fill="#AB3029"/>
<path transform="translate(243,1009)" d="m0 0 3 4 7 10 11 16 8 10 2 5h2v2h2l4 6v2h2l1 4h-2l-10-13-10-12-8-12-7-10-5-9z" fill="#D9D7DF"/>
<path transform="translate(490,78)" d="m0 0 2 1-1 13 9-2 5-3 3-1 5 3 1 5-2 2v-3h-8l-11 4-4 2v-20z" fill="#A82D27"/>
<path transform="translate(374,847)" d="m0 0 5 1 19 8 1 4-5 1-15-5-6-3 3-2v-2z" fill="#31548F"/>
<path transform="translate(750,411)" d="m0 0 4 2 9 17-1 3-6-12-1 7h-2l-2 3-5-12v-5z" fill="#325590"/>
<path transform="translate(274,208)" d="m0 0h2v3h-2l1 4-5 4h-2v2l-5 2v3l-3 3-6 7-4 4-2-1 4-8 9-10z" fill="#88BDDA"/>
<path transform="translate(433,113)" d="m0 0 5 1 2 4 2 1-1 4-8 4-4-1-1-2v-6z" fill="#D9D7DF"/>
<path transform="translate(771,220)" d="m0 0 13 2 20 1v1l-17 1 18 1 2 2-1 1h-19l-7-2-2-2-7-2z" fill="#3387A0"/>
<path transform="translate(781,84)" d="m0 0 4 2 2 2v6l-4 5h-6l-2-6 2-7z" fill="#E0E8F1"/>
<path transform="translate(414 1e3)" d="m0 0 5 1 2 4h7v1l-12 3-6 4-4 2-1-4 3-9 4 1v-2z" fill="#F7F7F8"/>
<path transform="translate(677,396)" d="m0 0h8l2 3-1 8-1 1h-8l-3-4v-5z" fill="#325590"/>
<path transform="translate(746,87)" d="m0 0m-2 1 2 1-6 6-1 5 5-1 1-3 9-4 1 2 5 3-3 1-9 2-10 7-3 4-5-1 3-2 4-3v-8l3-5z" fill="#2A618D"/>
<path transform="translate(289,943)" d="m0 0 6 1 1 2v12l-2 3-4-4-3-1-1-7z" fill="#F1F1F4"/>
<path transform="translate(448,548)" d="m0 0h3l4 8 2 6 2 4 5 1-1 3h-5l-5-5-5-6-2-8h2z" fill="#F9F8F9"/>
<path transform="translate(283,614)" d="m0 0h5l-4 2-11 4-7 2-3 1 2 4 5 3 1 3-5-2-11-7-4-2 4-2 7-2 14-1z" fill="#D9D7DF"/>
<path transform="translate(329,421)" d="m0 0m-22 1h22v1l-16 1-13 3-28 1-6 2-17 1-6 1 1-2 3-1 17-1 6-2 28-2z" fill="#D6D6DF"/>
<path transform="translate(504,554)" d="m0 0 1 4v9l1 7-2-1-2-6-8 6-9-2 5-5 5-3 5 1z" fill="#ECE6EF"/>
<path transform="translate(271,986)" d="m0 0h13l-1 5-3 7-1 6-2-1-4-10-3-3z" fill="#FAF9FA"/>
<path transform="translate(396,668)" d="m0 0h85v1l-41 1v1h-20l-24-2z" fill="#D8D6DE"/>
<path transform="translate(414,52)" d="m0 0 9 3v6l-3 5-7-2v-2h-2l-1-5z" fill="#DCE1E7"/>
<path transform="translate(124,720)" d="m0 0h3l1 6-1 3-5 2h-13l-26-8 4-1 10 3 12 3h9z" fill="#BE4F30"/>
<path transform="translate(290,1018)" d="m0 0h10v3l10 8 23 13-3 1-12-7-8-4-9-5-10-4z" fill="#D9D7DF"/>
<path transform="translate(222,550)" d="m0 0 2 1-4 12 1 9 1 7-2-3-8-23 1-2h4z" fill="#F0EAF2"/>
<path transform="translate(294,334)" d="m0 0h6l4 4-2 6-3 2-6-1-1-2v-7z" fill="#6E9ED6"/>
<path transform="translate(309,420)" d="m0 0h27v1l-7 1-22 1-9 2-11 1h-13v-2l24-2z" fill="#77ABD7"/>
<path transform="translate(264,974)" d="m0 0 2 3 4 5 7 2 9 1-1 3-1-2h-13l1 5 3 3-1 2-9-10-6-9h3l2 1z" fill="#E9E5ED"/>
<path transform="translate(409,519)" d="m0 0 3 3v2l3 1 3 8 1 5v10l-3 8h-1l-1-22-4-11z" fill="#E8DAE2"/>
<path transform="translate(336,601)" d="m0 0 3 1-4 4 1 2h6l4 3-1 2-5-3-8 1-3 2-2-5-3-1-7 1-1 3 1-5 16-4z" fill="#D6D3DC"/>
<path transform="translate(398,117)" d="m0 0h7v2l-5 2 4 1-5 2-10-1-7 1v2l4 1h-15l4-2 1-2 19-4h3z" fill="#8CC7DC"/>
<path transform="translate(365,990)" d="m0 0 2 1v12l1 7h-2l-3-3-4-3v-6h2v-2h2v-5z" fill="#F9F9FB"/>
<path transform="translate(488,87)" d="m0 0h1l1 12 1 2 17-1 4-3v6l-7 2h-16l-1-1z" fill="#6D262B"/>
<path transform="translate(431,608)" d="m0 0 8 1 2 3h-3v-2h-3l-1 9-3 3-4-4-2-7z" fill="#131E34"/>
<path transform="translate(431,47)" d="m0 0 5 1 14 7 8 3-4 3-9-2-7-6-6-3z" fill="#358C9F"/>
<path transform="translate(761,778)" d="m0 0v3l-10 9-5 3-11 7-14 9-3-1 30-20 12-9z" fill="#BD4D2E"/>
<path transform="translate(349,1051)" d="m0 0 5 1 17 6 5 2 15 5 3 3h-9l-3-3-12-4-12-5-9-4z" fill="#D9D7DF"/>
<path transform="translate(282,936)" d="m0 0 6 2 1 6-1 2h-2l-2 5-4-1v-9z" fill="#3F77C6"/>
<path transform="translate(755,208)" d="m0 0 8 8h4l3 3v2l-2 2 6 8v2l-4-2-3-5-5-5-5-8-2-1z" fill="#37649C"/>
<path transform="translate(402,1020)" d="m0 0h1v6h-2l-2 13 3 6v2h-3l-1-5h-2v-9l-1-7 2-3z" fill="#FCFBFC"/>
<path transform="translate(279,452)" d="m0 0h11l7 3 8 6v3l-7-6-6-3h-14l-8 4-5 4-4 6-1-2 4-6 8-7z" fill="#CFC7D2"/>
<path transform="translate(624,114)" d="m0 0 7 4 1-2 5 2 1 1h26v1l-27 3h-4v-2l-6-2-3-3z" fill="#9D2B27"/>
<path transform="translate(512,100)" d="m0 0 2 2-1 5-9 3-9-1v-2l-7 1h-18v-1l29-2h13z" fill="#3A73C5"/>
<path transform="translate(465,567)" d="m0 0 8 2h13l1 2 3 2-5 3h-7l-4-2v-2l-4 1v-2l-5-2z" fill="#E1E0E2"/>
<path transform="translate(580,112)" d="m0 0h6l15 5 17 4 2 2h-9l-21-6-10-3z" fill="#CFC7D2"/>
<path transform="translate(643,1039)" d="m0 0 3 1-25 12-23 9-4-1 15-6 18-8 12-5z" fill="#D9D7DF"/>
<path transform="translate(441,62)" d="m0 0h2l-1 5-6 8h-2v-2l-7-4-2-4 2-1v3l10-1v-2z" fill="#CED9E2"/>
<path transform="translate(615,21)" d="m0 0h15l-5 4-13 1h-3v2l-6-1v-2z" fill="#4078C7"/>
<path transform="translate(799,134)" d="m0 0h6l2 2 1 5-1 2-5 1v-2l-5 3v-9z" fill="#F7F7F8"/>
<path transform="translate(804,223)" d="m0 0h11v4l-7 2-3-2-18-1-1-2z" fill="#224881"/>
<path transform="translate(732,468)" d="m0 0h2v8l-2 3h-8l-1-7 5-1 2 1z" fill="#214780"/>
<path transform="translate(701,134)" d="m0 0h1l3 23 1 4h6v2l2 1-4 4-4-1-3-5-2-18z" fill="#6D262B"/>
<path transform="translate(389,122)" d="m0 0 10 1 5-1 6 1-4 2-10 3v-2l-1 1h-9l-4-1v-2z" fill="#288498"/>
<path transform="translate(758,116)" d="m0 0h3l-2 4-7 7-9 6-4 1 3-5 14-11z" fill="#8CC7DC"/>
<path transform="translate(620,113)" d="m0 0h2l3 6v2l12 1h7v1l-12 3-13-4z" fill="#6D262B"/>
<path transform="translate(399,859)" d="m0 0h1v15l4-1-1 16h-1l-2 7h-1z" fill="#DADBE3"/>
<path transform="translate(801,182)" d="m0 0 7 1v6h-3l-1 4h-4l-2-8z" fill="#BCC3D3"/>
<path transform="translate(829,180)" d="m0 0h12v1h-8l-1 3-2 1h-7l-1 3-3-3-6 1v-4l16-1z" fill="#27568C"/>
<path transform="translate(851,164)" d="m0 0 4 1 1 1v5l-4 5-6 1v-5h2l2-6z" fill="#264D83"/>
<path transform="translate(553,321)" d="m0 0h9l39 6 4 2-6 1-19-4-27-4z" fill="#3A73C5"/>
<path transform="translate(468,607)" d="m0 0 5 1-1 6-3 2-8 1v-2l-2-1h3l1-4 5-1z" fill="#04060B"/>
<path transform="translate(633,730)" d="m0 0v3l-11 20-10 15h-2l2-5 10-15 9-16z" fill="#3A73C5"/>
<path transform="translate(361,508)" d="m0 0 1 2-15 9-11 6-9 6-6 3-2-1 12-7 16-10z" fill="#F2B6B1"/>
<path transform="translate(811,187)" d="m0 0h1v6h2v2l6 2-2 5-1-3-6-1-4-3 1-6z" fill="#B7B6C8"/>
<path transform="translate(448,1035)" d="m0 0h1l2 7-1 7-3 3-5-1 2-5z" fill="#F8F8F9"/>
<path transform="translate(399,944)" d="m0 0h1v5h2v11h-3l-4-8v-3h2v-3h2z" fill="#274E89"/>
<path transform="translate(158,811)" d="m0 0h1v8l-2 3-5-1-2-4v-3z" fill="#7D2A2A"/>
<path transform="translate(274,208)" d="m0 0h2v3h-2l1 4-5 4h-2v2l-6 2v-3z" fill="#8BC6DC"/>
<path transform="translate(317,989)" d="m0 0 5 1 2 2v5l-1 1h-5v5h-1l-1-13z" fill="#F1EDF4"/>
<path transform="translate(401,878)" d="m0 0h1l1 11 3 7-1 7-4 1z" fill="#F9F8FA"/>
<path transform="translate(738,506)" d="m0 0 9 3 25 13 1 2-9-3-17-9-9-5z" fill="#D7D3DC"/>
<path transform="translate(414,860)" d="m0 0h9l15 3 2 2h-12l-6-3h-7l-7 6 2-4z" fill="#22457C"/>
<path transform="translate(351,834)" d="m0 0 6 1 14 8 11 5 2 2-5-1-11-5-7-3v-2l-7-1-3-3z" fill="#366AB1"/>
<path transform="translate(92,726)" d="m0 0 6 1 11 3h13l5-1-1 3-4 1h-12l-11-3-7-3z" fill="#AA2D27"/>
<path transform="translate(398,555)" d="m0 0 2 1 1 8-2 3h-2v2h-4l1-7 3-6z" fill="#AA2D27"/>
<path transform="translate(746,143)" d="m0 0 1 3-3 7-1-2-12-2 2-2h4l-3-2z" fill="#3D89A1"/>
<path transform="translate(422,613)" d="m0 0h1l1 14-5-2v-2l-3-1 2-7 3 1z" fill="#EDE7EF"/>
<path transform="translate(801,133)" d="m0 0 7 1v3l3 1-2 5-3 5h-6l-1-3 3-3v2h2l1-2 2 1v-8l-6-1z" fill="#B8CFDE"/>
<path transform="translate(559,109)" d="m0 0 14 1 7 2-1 4-5-1-15-4z" fill="#3B70BE"/>
<path transform="translate(481,102)" d="m0 0 5 1-4 2-7 1-11 2 1-5z" fill="#106070"/>
<path transform="translate(489,65)" d="m0 0 2 1 1 8-3 3h-5l-1-6h5v-5z" fill="#E7E8E8"/>
<path transform="translate(390,104)" d="m0 0 10 2h8l4 2h-13l-3-1h-10v2h-11l2-2 11-2z" fill="#72B1CE"/>
<path transform="translate(780,527)" d="m0 0 10 5 7 1 1 2 4 2-1 2-4-1-13-5-4-4z" fill="#D7D4DC"/>
<path transform="translate(317,487)" d="m0 0 4 1 1 4 2 1-1 5-3 2-1-4h-2z" fill="#EBE6EE"/>
<path transform="translate(760,89)" d="m0 0 4 1 1 7-4 2-4-4 1-5z" fill="#EAECF0"/>
<path transform="translate(630,739)" d="m0 0 2 3h-2l-1 4-2 1-4 8-7 9v-3l12-20z" fill="#325590"/>
<path transform="translate(718,121)" d="m0 0h2l2 17-2 6-3-3 1-7-1-4z" fill="#BC4C2D"/>
<path transform="translate(412,54)" d="m0 0h5l1 6h-2v3l-5-1-1-5z" fill="#F1EEF3"/>
<path transform="translate(433,22)" d="m0 0 4 1v2l5 1 8 4 5 2v1h-6l-14-7v-2l-4-1z" fill="#60A7BA"/>
<path transform="translate(389,619)" d="m0 0h1l1 11h-3l-4-3v-7l4 1z" fill="#EFEAF2"/>
<path transform="translate(433,116)" d="m0 0 5 1 1 5-3 2h-5l-1-5z" fill="#E7E8E8"/>
<path transform="translate(490,464)" d="m0 0h6l3 3v2l3 1-1 4-5-2-4-6z" fill="#ECE6EF"/>
<path transform="translate(376,981)" d="m0 0 3 1-6 7-4 2v9l-3 3 1-10 3-5z" fill="#3F6AA9"/>
<path transform="translate(613,765)" d="m0 0 1 2-2 4 4-3 2 1-4 4h-2v2l-4 2-1 2h-2l1-5 4-6h2z" fill="#325590"/>
<path transform="translate(221,284)" d="m0 0h2l-1 7h-2v7l-2 5-3 1 1-12 2 1z" fill="#8BC6DC"/>
<path transform="translate(753,92)" d="m0 0 7 5-3 1-9 2-5 2 3-4z" fill="#2A7A99"/>
<path transform="translate(333,947)" d="m0 0h10v5h-10z" fill="#234881"/>
<path transform="translate(128,712)" d="m0 0 1 4 3 3-1 4-3 6-1-3-1-5-1-2 1-6z" fill="#A9342D"/>
<path transform="translate(252,598)" d="m0 0 4 4 1 6h2v7l-3-1-4-12z" fill="#B9472C"/>
<path transform="translate(504,551)" d="m0 0 1 3-4 11-6-1 2-4z" fill="#F6F5F7"/>
<path transform="translate(741,153)" d="m0 0 1 4-5 5-5 1-3-1 2-5 8 2 1-4z" fill="#BFCFDF"/>
<path transform="translate(772,81)" d="m0 0 2 4-5 5-1 4h-2l1-4-3-1 6-7z" fill="#288597"/>
<path transform="translate(473,55)" d="m0 0h5l2 3-1 5-1 2-4-2-1-2z" fill="#E4E2EB"/>
<path transform="translate(401,1026)" d="m0 0h1v10l2 10-3-1-3-6 1-10z" fill="#E6E0E9"/>
<path transform="translate(400,856)" d="m0 0 9 2 4 2-2 4-3 2v-2h-2v-3h-2z" fill="#DAE1E5"/>
<path transform="translate(576,94)" d="m0 0 7 3-1 5v6h-1l-1-8h-2l-1 4h-2l-1-6z" fill="#A12C27"/>
<path transform="translate(412,730)" d="m0 0 10 3h11l-4 3-7 1-8-3v-2h-2z" fill="#D1CBD5"/>
<path transform="translate(398,577)" d="m0 0 3 1-13 7-2 1h-9l1-2 18-6z" fill="#DFC2C6"/>
<path transform="translate(387,505)" d="m0 0 5 1 10 4 7 7-1 2-9-8-14-3z" fill="#D7C3CB"/>
<path transform="translate(396,125)" d="m0 0 2 1h2l3 1-12 6h-2l1-4-1-2z" fill="#81BAD9"/>
<path transform="translate(552,102)" d="m0 0h5l5 5h-12l-2-2z" fill="#214780"/>
<path transform="translate(318,603)" d="m0 0 4 1-1 2-4 1-3 11-3 4-2-1 3-4 1-3v-9z" fill="#CFC7D2"/>
<path transform="translate(281,930)" d="m0 0h1l-1 11-1 4-4-2 1-5 2-7z" fill="#F9FAFB"/>
<path transform="translate(225,877)" d="m0 0 4 1 1 8-1 7-2-1z" fill="#FEFEFE"/>
<path transform="translate(281,613)" d="m0 0 4 1-9 4-14 1 2-2z" fill="#DCC1C6"/>
<path transform="translate(439,503)" d="m0 0h1v8l1 10-3 1-1-4 1-12z" fill="#EEE8F1"/>
<path transform="translate(445,720)" d="m0 0 2 4-2 5-4 3h-6l5-4z" fill="#DFDDE1"/>
<path transform="translate(247,243)" d="m0 0 1 3-10 10-4 2 6-10h2v-2z" fill="#89C4DC"/>
<path transform="translate(388,92)" d="m0 0h4v6l-3 3-4-4z" fill="#E8E7E9"/>
<path transform="translate(766,134)" d="m0 0h1l-1 10h8l-4 5-3-1h2l-1-2-3-1-2-5 1-4z" fill="#52A0B5"/>
<path transform="translate(387,949)" d="m0 0h6l3 3 1 6-6-4h-3z" fill="#E3E4E7"/>
<path transform="translate(357,594)" d="m0 0h6l-4 3-11 3-9 1 2-2 13-4z" fill="#D9D7DF"/>
<path transform="translate(707,819)" d="m0 0h1l2 13 5 7-4-2-4-4-1-3v-10z" fill="#89322B"/>
<path transform="translate(224,783)" d="m0 0 9 5 3 3-4 2-2-1v-2l-4-2-2-2z" fill="#AE3A34"/>
<path transform="translate(719,684)" d="m0 0 4 5 5 8-4-1v-2l-4-1-2-6z" fill="#DBD8DF"/>
<path transform="translate(310,603)" d="m0 0 4 1-1 3-15 3-4 2 1-4 11-2z" fill="#7E2728"/>
<path transform="translate(222,599)" d="m0 0h2l3 9h-3l-2-1v-2l-3-1 1-4z" fill="#BD4D2D"/>
<path transform="translate(836,172)" d="m0 0h7l-3 2-14 4-4-1 6-3 4-1z" fill="#8BC6DB"/>
<path transform="translate(598,28)" d="m0 0 4 2-5 2 2 1v2l-5 2-3 2h-2l2-4 5-5z" fill="#457DC8"/>
<path transform="translate(250,233)" d="m0 0v3l-2 6-4 4h-2v2h-2l2-4z" fill="#A7D4E0"/>
<path transform="translate(384,121)" d="m0 0m-3 1h3v2h-2v2l4 1h-15l4-2 1-2z" fill="#82BDD7"/>
<path transform="translate(411,117)" d="m0 0 4 1 2 2-7 3h-6l5-5z" fill="#1F507F"/>
<path transform="translate(521,88)" d="m0 0h8l-3 2-6 2-5 4-3 4 1-6 6-5z" fill="#CFC7D2"/>
<path transform="translate(765,820)" d="m0 0 2 3 1 4v10h-1l-2-7-2-5z" fill="#DFDEE3"/>
<path transform="translate(174,370)" d="m0 0h1v14l-2 3-1-1v-13z" fill="#4279C6"/>
<path transform="translate(257,619)" d="m0 0 4 1-3 3 4 1 1 4-5-2-7-4 4-2z" fill="#DBC6CC"/>
<path transform="translate(819,184)" d="m0 0 3 4h-3l-1 3-4-1h-2v-4z" fill="#D2D0DA"/>
<path transform="translate(627,125)" d="m0 0 8 1 9 3 6 3-3 1-20-7z" fill="#31548F"/>
<path transform="translate(805,1032)" d="m0 0h1l1 13-1 2-2-2-1-10 2-1z" fill="#DBDAE1"/>
<path transform="translate(625,760)" d="m0 0v3l-12 13-2-1 5-5 6-8z" fill="#386CB9"/>
<path transform="translate(620,122)" d="m0 0 7 2 1 3-9 1-1-4h2z" fill="#386DBA"/>
<path transform="translate(808,1051)" d="m0 0h1l2 11v5h-3l-1-6v-7z" fill="#DDDBE1"/>
<path transform="translate(75,730)" d="m0 0h1l2 16-5 1-1-2h2z" fill="#B13C2E"/>
<path transform="translate(296,951)" d="m0 0h1v10l-2 8-2-2-1-8 2 1z" fill="#84BEDB"/>
<path transform="translate(644,650)" d="m0 0h2l4 6 3-1-1 3-3 1-3-4-2 3-1-1v-6z" fill="#376AB5"/>
<path transform="translate(506,489)" d="m0 0 3 1 2 7v12h-1l-3-15z" fill="#E9E6EB"/>
<path transform="translate(417,17)" d="m0 0 3 1-1 6v6l-3-1v-10z" fill="#89C5DC"/>
<path transform="translate(222,818)" d="m0 0h9l2 2 4 2h-7l-7-2z" fill="#AC3A2A"/>
<path transform="translate(805,122)" d="m0 0m-1 1m-1 1m-1 1m-1 1m-2 1h2l-1 3h-2l-2 11h-1l-1-8z" fill="#288396"/>
<path transform="translate(403,122)" d="m0 0 7 1-4 2-10 3 1-2-2-2 4-1z" fill="#2F7DA9"/>
<path transform="translate(752,195)" d="m0 0 3 1-3 4-3 3-3-5-1-2z" fill="#2E869E"/>
<path transform="translate(578,100)" d="m0 0h2l3 10h-3v-5h-3l1 4-3-1z" fill="#98231C"/>
<path transform="translate(757,515)" d="m0 0 5 2 11 6-2 1-14-7z" fill="#D8D6DE"/>
<path transform="translate(771,220)" d="m0 0 13 2-4 1-1 2-6-1-2-1z" fill="#398BA0"/>
<path transform="translate(646,663)" d="m0 0h1l2 6-1 15h-1z" fill="#325590"/>
<path transform="translate(663,641)" d="m0 0 2 1v13h-1l-1-10-6 4 2-4z" fill="#396FBF"/>
<path transform="translate(177,357)" d="m0 0h2v5l-4 8-2 1 3-12z" fill="#5A8ECD"/>
<path transform="translate(821,217)" d="m0 0h3v6l-3 1-4-1 1-3 3-1z" fill="#224780"/>
<path transform="translate(792,197)" d="m0 0h6l1 3h-12v-2z" fill="#136073"/>
<path transform="translate(812,127)" d="m0 0 3 1-6 5v3h2l-1 2-2-1v-3l-3-1v-2z" fill="#2D889B"/>
<path transform="translate(730,93)" d="m0 0 8 2-1 5-8-4z" fill="#8CA9CC"/>
<path transform="translate(311,535)" d="m0 0 1 2 4-1-5 5-6 3v-2l5-5z" fill="#EBB5B1"/>
<path transform="translate(813,183)" d="m0 0h10l2 2h-2l-1 3-3-3-6 1z" fill="#4C7DC0"/>
<path transform="translate(738,101)" d="m0 0 2 2h3l-5 4-3 4-5-1 3-2 4-3z" fill="#2B729C"/>
<path transform="translate(765,94)" d="m0 0 2 1-1 2h6v1l-3 1-1 4-4-2v-2l-2-1 2-1z" fill="#4E87AD"/>
<path transform="translate(793,979)" d="m0 0 2 4 2 9-5-5z" fill="#DDDCE2"/>
<path transform="translate(393,632)" d="m0 0 11 1 5-1-1 2-6 2h-5z" fill="#CFC7D2"/>
<path transform="translate(793,533)" d="m0 0h4l1 2 4 2-1 2-4-1-4-2z" fill="#96AED3"/>
<path transform="translate(814,221)" d="m0 0h3v2h4l-1 2-3-1-1 4-6 1 1-2 4-1v-2l-3-2z" fill="#4A82C8"/>
<path transform="translate(806,182)" d="m0 0 7 1-1 4-4 2v-6z" fill="#25497C"/>
<path transform="translate(618,110)" d="m0 0h1v12l-4-5-1-2h2z" fill="#AA2E27"/>
<path transform="translate(353,524)" d="m0 0 4 2 4 3-1 3-6-3z" fill="#BD4D2E"/>
<path transform="translate(226,273)" d="m0 0 2 1-4 5-1 3-3 1 1-5z" fill="#98CCDD"/>
<path transform="translate(402,98)" d="m0 0h6l1 4-1 3h-3l-1-5z" fill="#EDE8EF"/>
<path transform="translate(700,87)" d="m0 0h1v9l-1 3-7-1 3-2h3z" fill="#325590"/>
<path transform="translate(430,58)" d="m0 0h2v6l-5 2 1-5z" fill="#FEFEFE"/>
</svg>
